<svg xmlns="http://www.w3.org/2000/svg" style="display: none;"><symbol id="favourite" viewBox="0 0 512.07 512.07"><title>favourite</title><path d="m509.759 194.639c-6.152-18.858-22.945-31.043-42.781-31.043h-127.918l-40.282-122.33c-6.192-18.805-22.95-30.926-42.729-30.926-.063 0-.128 0-.191.001-19.86.078-36.611 12.349-42.674 31.262l-39.108 121.993h-128.983c-19.886 0-36.692 12.226-42.814 31.146-6.123 18.92.335 38.674 16.453 50.324l104.361 75.434-40.17 121.991c-6.217 18.88.133 38.662 16.177 50.396 8.058 5.894 17.307 8.842 26.562 8.842 9.171-.001 18.347-2.897 26.365-8.693l104.542-75.563 103.3 75.436c16.026 11.704 36.781 11.76 52.873.147s22.575-31.328 16.518-50.227l-39.218-122.329 103.474-75.563c16.02-11.698 22.396-31.441 16.243-50.298z"/></symbol><symbol id="hourglass" viewBox="0 0 512 512"><title>hourglass</title><path d="M336.655,202.803c33.946-30.949,79.852-72.806,84.036-172.803H451V0H61v30h30.309 c4.184,99.997,50.09,141.854,84.036,172.803C198.116,223.564,211,236.271,211,256s-12.884,32.436-35.655,53.197 C141.399,340.146,95.493,382.003,91.309,482H61v30h390v-30h-30.309c-4.184-99.997-50.09-141.854-84.036-172.803 C313.884,288.436,301,275.729,301,256S313.884,223.564,336.655,202.803z M241,368.438c-4.633,0.956-9.21,2.347-13.677,4.195 l-91.877,38.019c15.004-38.15,39.17-60.193,60.111-79.285C218.927,310.06,241,289.935,241,256V368.438z M316.443,331.367 c20.941,19.092,45.106,41.135,60.111,79.284l-91.877-38.019c-4.467-1.848-9.044-3.239-13.677-4.195V256 C271,289.935,293.073,310.06,316.443,331.367z M134.919,100c-7.253-18.899-12.262-41.718-13.573-70h269.307 c-1.311,28.282-6.319,51.101-13.573,70H134.919z"/></symbol><symbol id="search" viewBox="0 0 511.999 511.999"><title>search</title><path d="M508.874,478.708L360.142,329.976c28.21-34.827,45.191-79.103,45.191-127.309c0-111.75-90.917-202.667-202.667-202.667 S0,90.917,0,202.667s90.917,202.667,202.667,202.667c48.206,0,92.482-16.982,127.309-45.191l148.732,148.732 c4.167,4.165,10.919,4.165,15.086,0l15.081-15.082C513.04,489.627,513.04,482.873,508.874,478.708z M202.667,362.667 c-88.229,0-160-71.771-160-160s71.771-160,160-160s160,71.771,160,160S290.896,362.667,202.667,362.667z"/></symbol></svg>